<svg xmlns="http://www.w3.org/2000/svg" xmlns:xlink="http://www.w3.org/1999/xlink" preserveAspectRatio="xMidYMid" width="50" height="50" viewBox="0 0 50 50">
  <defs>
    <style>

      .cls-3 {
        fill: #ffffff;
        fill-opacity: 0;
      }

      .cls-4 {
        fill: #30306d;
      }
    </style>
  </defs>
  <g id="percent-primarysvg">
    <rect id="rect-1" class="cls-3" width="50" height="50"/>
    <path d="M6.166,42.335 C6.166,42.335 42.129,6.372 42.129,6.372 C42.129,6.372 43.725,7.967 43.725,7.967 C43.725,7.967 7.762,43.931 7.762,43.931 C7.762,43.931 6.166,42.335 6.166,42.335 ZM12.269,20.541 C7.704,20.541 3.992,16.828 3.992,12.263 C3.992,7.699 7.704,3.985 12.269,3.985 C16.834,3.985 20.546,7.699 20.546,12.263 C20.546,16.828 16.834,20.541 12.269,20.541 ZM12.269,6.242 C8.949,6.242 6.248,8.944 6.248,12.263 C6.248,15.583 8.949,18.284 12.269,18.284 C15.589,18.284 18.290,15.583 18.290,12.263 C18.290,8.944 15.589,6.242 12.269,6.242 ZM37.728,29.445 C42.292,29.445 46.005,33.158 46.005,37.723 C46.005,42.286 42.292,45.999 37.728,45.999 C33.163,45.999 29.450,42.286 29.450,37.723 C29.450,33.158 33.163,29.445 37.728,29.445 ZM37.728,43.743 C41.047,43.743 43.749,41.043 43.749,37.723 C43.749,34.404 41.047,31.702 37.728,31.702 C34.408,31.702 31.706,34.404 31.706,37.723 C31.706,41.043 34.408,43.743 37.728,43.743 Z" id="path-1" class="cls-4" fill-rule="evenodd"/>
  </g>
</svg>
