<svg xmlns="http://www.w3.org/2000/svg" xmlns:xlink="http://www.w3.org/1999/xlink" preserveAspectRatio="xMidYMid" width="50" height="50" viewBox="0 0 50 50">
  <defs>
    <style>

      .cls-3 {
        fill: #ffffff;
        fill-opacity: 0;
      }

      .cls-4 {
        fill: #30306d;
      }
    </style>
  </defs>
  <g id="tag-primarysvg">
    <rect id="rect-1" class="cls-3" width="50" height="50"/>
    <path d="M45.253,23.488 C45.253,23.488 22.741,45.999 22.741,45.999 C22.741,45.999 3.991,27.249 3.991,27.249 C3.991,27.249 26.501,4.738 26.501,4.738 C26.501,4.738 45.997,3.994 45.997,3.994 C45.997,3.994 45.253,23.488 45.253,23.488 ZM27.301,6.570 C27.301,6.570 6.623,27.249 6.623,27.249 C6.623,27.249 22.741,43.368 22.741,43.368 C22.741,43.368 43.420,22.688 43.420,22.688 C43.420,22.688 44.061,5.929 44.061,5.929 C44.061,5.929 27.301,6.570 27.301,6.570 ZM33.916,16.074 C32.775,14.934 32.775,13.085 33.916,11.945 C35.056,10.805 36.905,10.805 38.045,11.945 C39.185,13.085 39.185,14.934 38.045,16.074 C36.905,17.214 35.056,17.214 33.916,16.074 Z" id="path-1" class="cls-4" fill-rule="evenodd"/>
  </g>
</svg>
